<svg width="158" height="52" viewBox="0 0 158 52" fill="none" xmlns="http://www.w3.org/2000/svg">
<g clip-path="url(#clip0_24_3066)">
<path d="M158 0H0V52H158V0Z" fill="white"/>
<path d="M95.0669 44.5986V42.6789H95.3983C95.5096 42.5906 95.6135 42.4661 95.7102 42.3056C95.8069 42.145 95.8896 41.925 95.9572 41.6456C96.0249 41.3662 96.0716 41.0049 96.0975 40.5617L96.2278 38.4759H99.3937V42.6789H99.9449V44.5937H99.0841V43.4087H95.9282V44.5986H95.0669ZM96.443 42.6789H98.5329V39.225H97.0355L96.9584 40.5617C96.9375 40.8973 96.9034 41.1976 96.8567 41.4625C96.8099 41.7275 96.7513 41.9612 96.68 42.1635C96.6092 42.3642 96.5302 42.536 96.443 42.6789ZM102.053 43.481C101.691 43.481 101.376 43.4015 101.11 43.2425C100.844 43.0835 100.638 42.8612 100.491 42.5753C100.346 42.2895 100.274 41.9555 100.274 41.5734C100.274 41.1912 100.346 40.8564 100.491 40.569C100.638 40.2816 100.844 40.0584 101.11 39.8994C101.376 39.7404 101.691 39.6609 102.053 39.6609C102.416 39.6609 102.731 39.7404 102.996 39.8994C103.262 40.0584 103.468 40.2816 103.613 40.569C103.76 40.8564 103.834 41.1912 103.834 41.5734C103.834 41.9555 103.76 42.2895 103.613 42.5753C103.468 42.8612 103.262 43.0835 102.996 43.2425C102.731 43.4015 102.416 43.481 102.053 43.481ZM102.058 42.7825C102.255 42.7825 102.419 42.7287 102.551 42.6211C102.684 42.5119 102.782 42.3658 102.847 42.1827C102.913 41.9997 102.946 41.7958 102.946 41.5709C102.946 41.3445 102.913 41.1398 102.847 40.9567C102.782 40.7721 102.684 40.6252 102.551 40.516C102.419 40.4068 102.255 40.3522 102.058 40.3522C101.857 40.3522 101.689 40.4068 101.555 40.516C101.423 40.6252 101.324 40.7721 101.258 40.9567C101.193 41.1398 101.161 41.3445 101.161 41.5709C101.161 41.7958 101.193 41.9997 101.258 42.1827C101.324 42.3658 101.423 42.5119 101.555 42.6211C101.689 42.7287 101.857 42.7825 102.058 42.7825ZM105.993 43.481C105.622 43.481 105.303 43.3999 105.037 43.2377C104.773 43.0755 104.569 42.8515 104.425 42.5657C104.284 42.2783 104.213 41.9475 104.213 41.5734C104.213 41.1976 104.285 40.866 104.43 40.5786C104.575 40.2896 104.78 40.0648 105.045 39.9042C105.311 39.742 105.625 39.6609 105.988 39.6609C106.289 39.6609 106.556 39.7163 106.788 39.8271C107.022 39.9363 107.208 40.0913 107.347 40.292C107.485 40.4911 107.564 40.7239 107.584 40.9905H106.747C106.713 40.8122 106.633 40.6637 106.505 40.5449C106.379 40.4244 106.211 40.3642 106 40.3642C105.821 40.3642 105.664 40.4124 105.528 40.5087C105.393 40.6035 105.287 40.74 105.212 40.9182C105.137 41.0965 105.1 41.31 105.1 41.5589C105.1 41.811 105.137 42.0278 105.212 42.2092C105.286 42.3891 105.39 42.528 105.524 42.6259C105.659 42.7223 105.818 42.7704 106 42.7704C106.129 42.7704 106.244 42.7464 106.346 42.6982C106.449 42.6484 106.535 42.5769 106.605 42.4838C106.674 42.3907 106.721 42.2775 106.747 42.1442H107.584C107.563 42.4059 107.485 42.638 107.352 42.8403C107.218 43.041 107.036 43.1984 106.805 43.3123C106.575 43.4248 106.304 43.481 105.993 43.481ZM107.829 40.4244V39.7091H111.079V40.4244H109.877V43.4087H109.031V40.4244H107.829ZM112.488 43.4834C112.253 43.4834 112.041 43.4416 111.852 43.3581C111.665 43.273 111.517 43.1478 111.407 42.9824C111.299 42.817 111.245 42.6131 111.245 42.3706C111.245 42.1618 111.284 41.9892 111.361 41.8527C111.439 41.7163 111.544 41.6071 111.678 41.5252C111.812 41.4433 111.962 41.3815 112.13 41.3397C112.299 41.2964 112.474 41.265 112.655 41.2458C112.872 41.2233 113.049 41.2032 113.185 41.1856C113.32 41.1663 113.418 41.1374 113.479 41.0989C113.542 41.0587 113.574 40.9969 113.574 40.9134V40.899C113.574 40.7175 113.52 40.577 113.412 40.4774C113.304 40.3779 113.148 40.3281 112.945 40.3281C112.731 40.3281 112.56 40.3747 112.435 40.4678C112.311 40.561 112.227 40.6709 112.183 40.7978L111.366 40.6822C111.43 40.4574 111.537 40.2695 111.685 40.1186C111.834 39.966 112.015 39.852 112.229 39.7765C112.444 39.6995 112.681 39.6609 112.94 39.6609C113.119 39.6609 113.297 39.6818 113.475 39.7235C113.652 39.7653 113.814 39.8344 113.961 39.9307C114.108 40.0254 114.225 40.1547 114.314 40.3185C114.404 40.4823 114.449 40.687 114.449 40.9326V43.4087H113.608V42.9005H113.579C113.526 43.0032 113.45 43.0996 113.354 43.1895C113.259 43.2778 113.138 43.3493 112.994 43.4039C112.85 43.4569 112.682 43.4834 112.488 43.4834ZM112.715 42.8427C112.891 42.8427 113.043 42.8082 113.172 42.7391C113.301 42.6685 113.4 42.5753 113.47 42.4597C113.541 42.3441 113.576 42.218 113.576 42.0816V41.6456C113.549 41.6681 113.502 41.689 113.436 41.7082C113.371 41.7275 113.299 41.7443 113.218 41.7588C113.138 41.7733 113.058 41.7861 112.979 41.7973C112.9 41.8086 112.831 41.8182 112.773 41.8263C112.643 41.8439 112.526 41.8728 112.423 41.913C112.319 41.9531 112.238 42.0093 112.179 42.0816C112.119 42.1522 112.089 42.2438 112.089 42.3561C112.089 42.5167 112.148 42.638 112.265 42.7199C112.383 42.8018 112.533 42.8427 112.715 42.8427ZM115.125 43.4087V39.7091H116.685C117.126 39.7091 117.473 39.7966 117.728 39.9716C117.984 40.1467 118.112 40.3907 118.112 40.7038C118.112 40.911 118.04 41.0804 117.894 41.212C117.751 41.3421 117.555 41.4296 117.307 41.4746C117.502 41.4907 117.673 41.5396 117.819 41.6215C117.968 41.7034 118.084 41.811 118.168 41.9443C118.252 42.0775 118.293 42.2309 118.293 42.4043C118.293 42.6083 118.239 42.7857 118.131 42.9366C118.025 43.0859 117.869 43.2024 117.665 43.2858C117.462 43.3677 117.215 43.4087 116.924 43.4087H115.125ZM115.945 42.7223H116.924C117.086 42.7223 117.212 42.6845 117.304 42.609C117.396 42.532 117.442 42.4276 117.442 42.2959C117.442 42.1434 117.396 42.0237 117.304 41.9371C117.212 41.8487 117.086 41.8046 116.924 41.8046H115.945V42.7223ZM115.945 41.241H116.702C116.821 41.241 116.924 41.2241 117.009 41.1904C117.095 41.1551 117.16 41.1061 117.205 41.0435C117.25 40.9792 117.273 40.903 117.273 40.8146C117.273 40.6878 117.22 40.5882 117.116 40.516C117.013 40.4437 116.869 40.4076 116.685 40.4076H115.945V41.241ZM118.812 43.4087V39.7091H119.687V41.2024H120.006L121.124 39.7091H122.178L120.802 41.5252L122.192 43.4087H121.133L120.115 42.0141H119.687V43.4087H118.812ZM123.554 43.4834C123.318 43.4834 123.106 43.4416 122.918 43.3581C122.731 43.273 122.583 43.1478 122.473 42.9824C122.365 42.817 122.311 42.6131 122.311 42.3706C122.311 42.1618 122.349 41.9892 122.427 41.8527C122.504 41.7163 122.61 41.6071 122.744 41.5252C122.877 41.4433 123.028 41.3815 123.196 41.3397C123.365 41.2964 123.54 41.265 123.721 41.2458C123.938 41.2233 124.115 41.2032 124.25 41.1856C124.385 41.1663 124.484 41.1374 124.545 41.0989C124.608 41.0587 124.64 40.9969 124.64 40.9134V40.899C124.64 40.7175 124.586 40.577 124.478 40.4774C124.37 40.3779 124.214 40.3281 124.011 40.3281C123.797 40.3281 123.626 40.3747 123.501 40.4678C123.376 40.561 123.293 40.6709 123.249 40.7978L122.432 40.6822C122.496 40.4574 122.602 40.2695 122.751 40.1186C122.899 39.966 123.081 39.852 123.295 39.7765C123.509 39.6995 123.746 39.6609 124.006 39.6609C124.185 39.6609 124.363 39.6818 124.54 39.7235C124.718 39.7653 124.88 39.8344 125.027 39.9307C125.173 40.0254 125.291 40.1547 125.38 40.3185C125.47 40.4823 125.515 40.687 125.515 40.9326V43.4087H124.673V42.9005H124.644C124.591 43.0032 124.516 43.0996 124.419 43.1895C124.325 43.2778 124.204 43.3493 124.059 43.4039C123.916 43.4569 123.747 43.4834 123.554 43.4834ZM123.781 42.8427C123.957 42.8427 124.109 42.8082 124.238 42.7391C124.367 42.6685 124.466 42.5753 124.536 42.4597C124.607 42.3441 124.642 42.218 124.642 42.0816V41.6456C124.615 41.6681 124.568 41.689 124.502 41.7082C124.437 41.7275 124.365 41.7443 124.284 41.7588C124.203 41.7733 124.123 41.7861 124.044 41.7973C123.965 41.8086 123.897 41.8182 123.839 41.8263C123.708 41.8439 123.592 41.8728 123.488 41.913C123.385 41.9531 123.304 42.0093 123.244 42.0816C123.185 42.1522 123.155 42.2438 123.155 42.3561C123.155 42.5167 123.214 42.638 123.331 42.7199C123.449 42.8018 123.599 42.8427 123.781 42.8427ZM129.321 43.481C128.948 43.481 128.626 43.4039 128.355 43.2497C128.086 43.094 127.879 42.874 127.734 42.5898C127.589 42.304 127.516 41.9676 127.516 41.5806C127.516 41.2 127.589 40.866 127.734 40.5786C127.881 40.2896 128.086 40.0648 128.349 39.9042C128.611 39.742 128.92 39.6609 129.275 39.6609C129.504 39.6609 129.72 39.6978 129.923 39.7717C130.127 39.844 130.308 39.9564 130.464 40.1089C130.622 40.2615 130.747 40.4558 130.837 40.6918C130.927 40.9262 130.972 41.2056 130.972 41.53V41.7973H127.928V41.2096H130.133C130.132 41.0427 130.095 40.8941 130.024 40.7641C129.954 40.6324 129.854 40.5288 129.727 40.4533C129.601 40.3779 129.455 40.3402 129.287 40.3402C129.108 40.3402 128.951 40.3835 128.815 40.4702C128.68 40.5553 128.574 40.6677 128.498 40.8074C128.424 40.9455 128.386 41.0972 128.384 41.2626V41.7757C128.384 41.9908 128.424 42.1755 128.503 42.3296C128.582 42.4822 128.693 42.5994 128.834 42.6813C128.977 42.7616 129.142 42.8017 129.332 42.8017C129.46 42.8017 129.575 42.7841 129.678 42.7488C129.781 42.7118 129.871 42.658 129.947 42.5874C130.023 42.5167 130.08 42.4292 130.119 42.3248L130.936 42.4164C130.884 42.6315 130.786 42.8194 130.641 42.98C130.497 43.1389 130.314 43.2626 130.09 43.3509C129.865 43.4376 129.609 43.481 129.321 43.481ZM131.18 44.4829V42.6909H131.475C131.554 42.6299 131.62 42.5472 131.673 42.4429C131.727 42.3369 131.77 42.2124 131.804 42.0695C131.839 41.925 131.868 41.7636 131.891 41.5854C131.914 41.4056 131.934 41.212 131.951 41.0049L132.058 39.7091H134.742V42.6909H135.318V44.4829H134.472V43.4087H132.041V44.4829H131.18ZM132.374 42.6909H133.905V40.4124H132.817L132.759 41.0049C132.727 41.3967 132.684 41.7323 132.631 42.0117C132.578 42.2911 132.492 42.5175 132.374 42.6909ZM136.359 40.9134H137.455C137.929 40.9134 138.296 41.0282 138.555 41.2578C138.815 41.4875 138.945 41.7885 138.947 42.1611C138.945 42.4035 138.886 42.6187 138.768 42.8065C138.652 42.9944 138.483 43.1421 138.26 43.2497C138.04 43.3557 137.771 43.4087 137.455 43.4087H135.767V39.7091H136.611V42.6934H137.455C137.645 42.6934 137.802 42.6452 137.924 42.5488C138.047 42.4509 138.108 42.3257 138.108 42.1731C138.108 42.0125 138.047 41.8817 137.924 41.7805C137.802 41.6793 137.645 41.6288 137.455 41.6288H136.359V40.9134ZM139.409 43.4087V39.7091H140.285V43.4087H139.409Z" fill="black"/>
<path d="M16.2959 35.7217V10.0711H32.7955V13.9663H20.9616V20.93H31.6637V24.8252H20.9616V35.7217H16.2959ZM42.0822 36.0975C40.1959 36.0975 38.561 35.6841 37.1776 34.8575C35.7942 34.0309 34.7211 32.8744 33.9582 31.3882C33.2036 29.9019 32.8263 28.1652 32.8263 26.1779C32.8263 24.1907 33.2036 22.4497 33.9582 20.9551C34.7211 19.4605 35.7942 18.2999 37.1776 17.4733C38.561 16.6466 40.1959 16.2333 42.0822 16.2333C43.9686 16.2333 45.6035 16.6466 46.9869 17.4733C48.3703 18.2999 49.4391 19.4605 50.1937 20.9551C50.9565 22.4497 51.3383 24.1907 51.3383 26.1779C51.3383 28.1652 50.9565 29.9019 50.1937 31.3882C49.4391 32.8744 48.3703 34.0309 46.9869 34.8575C45.6035 35.6841 43.9686 36.0975 42.0822 36.0975ZM42.1074 32.4653C43.1302 32.4653 43.9854 32.1856 44.6728 31.6262C45.3603 31.0584 45.8719 30.2985 46.2069 29.3467C46.5511 28.3948 46.7227 27.3344 46.7227 26.1654C46.7227 24.9881 46.5511 23.9235 46.2069 22.9716C45.8719 22.0114 45.3603 21.2473 44.6728 20.6796C43.9854 20.1118 43.1302 19.8279 42.1074 19.8279C41.0594 19.8279 40.1875 20.1118 39.4916 20.6796C38.8041 21.2473 38.2885 22.0114 37.9448 22.9716C37.6094 23.9235 37.4417 24.9881 37.4417 26.1654C37.4417 27.3344 37.6094 28.3948 37.9448 29.3467C38.2885 30.2985 38.8041 31.0584 39.4916 31.6262C40.1875 32.1856 41.0594 32.4653 42.1074 32.4653ZM61.8571 36.0975C59.9706 36.0975 58.3362 35.6841 56.9528 34.8575C55.5693 34.0309 54.496 32.8744 53.7333 31.3882C52.9787 29.9019 52.6014 28.1652 52.6014 26.1779C52.6014 24.1907 52.9787 22.4497 53.7333 20.9551C54.496 19.4605 55.5693 18.2999 56.9528 17.4733C58.3362 16.6466 59.9706 16.2333 61.8571 16.2333C63.7436 16.2333 65.3785 16.6466 66.7619 17.4733C68.1453 18.2999 69.2141 19.4605 69.9687 20.9551C70.7314 22.4497 71.1133 24.1907 71.1133 26.1779C71.1133 28.1652 70.7314 29.9019 69.9687 31.3882C69.2141 32.8744 68.1453 34.0309 66.7619 34.8575C65.3785 35.6841 63.7436 36.0975 61.8571 36.0975ZM61.8825 32.4653C62.905 32.4653 63.7604 32.1856 64.4478 31.6262C65.1352 31.0584 65.6468 30.2985 65.9819 29.3467C66.326 28.3948 66.4977 27.3344 66.4977 26.1654C66.4977 24.9881 66.326 23.9235 65.9819 22.9716C65.6468 22.0114 65.1352 21.2473 64.4478 20.6796C63.7604 20.1118 62.905 19.8279 61.8825 19.8279C60.8342 19.8279 59.9625 20.1118 59.2664 20.6796C58.5791 21.2473 58.0633 22.0114 57.7196 22.9716C57.3845 23.9235 57.2165 24.9881 57.2165 26.1654C57.2165 27.3344 57.3845 28.3948 57.7196 29.3467C58.0633 30.2985 58.5791 31.0584 59.2664 31.6262C59.9625 32.1856 60.8342 32.4653 61.8825 32.4653ZM80.3744 36.0599C78.8571 36.0599 77.4991 35.6716 76.3 34.8951C75.101 34.1185 74.1539 32.9913 73.4578 31.5134C72.7618 30.0355 72.414 28.2403 72.414 26.1278C72.414 23.9903 72.7664 22.1867 73.4706 20.7171C74.1829 19.2392 75.1432 18.1245 76.3504 17.3731C77.5577 16.6132 78.9034 16.2333 80.3871 16.2333C81.519 16.2333 82.4498 16.4253 83.1789 16.8094C83.9085 17.1852 84.487 17.6402 84.9147 18.1746C85.3423 18.7006 85.6733 19.1975 85.9081 19.6651H86.0965V10.0711H90.6617V35.7217H86.1846V32.6908H85.9081C85.6733 33.1583 85.3337 33.6552 84.8892 34.1812C84.4452 34.6989 83.8581 35.1414 83.129 35.5088C82.3994 35.8762 81.4813 36.0599 80.3744 36.0599ZM81.6448 32.3401C82.6091 32.3401 83.4305 32.0812 84.1097 31.5635C84.7889 31.0375 85.3042 30.3069 85.6565 29.3717C86.0089 28.4365 86.1846 27.3469 86.1846 26.1028C86.1846 24.8587 86.0089 23.7773 85.6565 22.8589C85.3128 21.9404 84.8012 21.2265 84.1224 20.7171C83.4513 20.2078 82.6259 19.9531 81.6448 19.9531C80.6305 19.9531 79.7837 20.2161 79.1045 20.7422C78.4253 21.2682 77.9141 21.9946 77.5704 22.9215C77.2267 23.8483 77.0546 24.9087 77.0546 26.1028C77.0546 27.3051 77.2267 28.3781 77.5704 29.3216C77.9223 30.2568 78.438 30.9957 79.1172 31.5385C79.8046 32.0729 80.6473 32.3401 81.6448 32.3401ZM111.198 18.2623C110.988 17.5859 110.699 16.9806 110.33 16.4462C109.969 15.9035 109.533 15.4401 109.022 15.056C108.519 14.6719 107.94 14.3838 107.287 14.1918C106.632 13.9914 105.92 13.8912 105.149 13.8912C103.765 13.8912 102.533 14.2377 101.451 14.9307C100.37 15.6238 99.5188 16.6424 98.8981 17.9867C98.2861 19.3227 97.9801 20.9509 97.9801 22.8714C97.9801 24.8086 98.2861 26.4493 98.8981 27.7936C99.5101 29.1379 100.361 30.1608 101.451 30.8621C102.541 31.5552 103.807 31.9017 105.249 31.9017C106.557 31.9017 107.689 31.6512 108.645 31.1502C109.609 30.6492 110.351 29.9395 110.871 29.021C111.391 28.0942 111.65 27.0087 111.65 25.7646L112.707 25.9274H105.714V22.2952H116.165V25.3763C116.165 27.5723 115.696 29.4719 114.757 31.0751C113.818 32.6782 112.527 33.914 110.883 34.7824C109.24 35.6424 107.353 36.0724 105.224 36.0724C102.851 36.0724 100.768 35.5422 98.9739 34.4818C97.1878 33.413 95.7921 31.8975 94.786 29.9353C93.7885 27.9648 93.2896 25.6268 93.2896 22.9215C93.2896 20.8507 93.5829 19.0012 94.1699 17.3731C94.7651 15.7448 95.5951 14.3629 96.6598 13.2273C97.7245 12.0834 98.9739 11.2151 100.407 10.6222C101.841 10.021 103.401 9.72046 105.086 9.72046C106.511 9.72046 107.84 9.92918 109.072 10.3467C110.305 10.7558 111.399 11.3403 112.354 12.1001C113.319 12.8599 114.111 13.7618 114.731 14.8055C115.352 15.8492 115.758 17.0015 115.951 18.2623H111.198ZM141.92 22.8964C141.92 25.6602 141.4 28.0274 140.36 29.9979C139.329 31.9601 137.921 33.4631 136.135 34.5068C134.358 35.5505 132.341 36.0724 130.086 36.0724C127.831 36.0724 125.81 35.5505 124.024 34.5068C122.247 33.4548 120.838 31.9476 119.799 29.9854C118.768 28.0149 118.252 25.6519 118.252 22.8964C118.252 20.1326 118.768 17.7697 119.799 15.8074C120.838 13.8369 122.247 12.3298 124.024 11.286C125.81 10.2423 127.831 9.72046 130.086 9.72046C132.341 9.72046 134.358 10.2423 136.135 11.286C137.921 12.3298 139.329 13.8369 140.36 15.8074C141.4 17.7697 141.92 20.1326 141.92 22.8964ZM137.229 22.8964C137.229 20.9509 136.923 19.3102 136.311 17.9742C135.708 16.6299 134.869 15.6154 133.796 14.9307C132.723 14.2377 131.486 13.8912 130.086 13.8912C128.686 13.8912 127.449 14.2377 126.376 14.9307C125.303 15.6154 124.461 16.6299 123.848 17.9742C123.245 19.3102 122.943 20.9509 122.943 22.8964C122.943 24.8419 123.245 26.4868 123.848 27.8312C124.461 29.1671 125.303 30.1816 126.376 30.8746C127.449 31.5593 128.686 31.9017 130.086 31.9017C131.486 31.9017 132.723 31.5593 133.796 30.8746C134.869 30.1816 135.708 29.1671 136.311 27.8312C136.923 26.4868 137.229 24.8419 137.229 22.8964Z" fill="black"/>
</g>
<defs>
<clipPath id="clip0_24_3066">
<rect width="158" height="52" fill="white"/>
</clipPath>
</defs>
</svg>
