<svg width="348" height="115" viewBox="0 0 348 115" fill="none" xmlns="http://www.w3.org/2000/svg">
<rect width="348" height="115" fill="#D6DE67"/>
<path d="M209.368 98.6314V94.386H210.097C210.342 94.1907 210.571 93.9155 210.784 93.5604C210.998 93.2053 211.179 92.7187 211.328 92.1009C211.477 91.483 211.58 90.6839 211.637 89.7038L211.924 85.0909H218.897V94.386H220.112V98.6207H218.215V96H211.264V98.6314H209.368ZM212.398 94.386H217.001V86.7475H213.703L213.533 89.7038C213.487 90.446 213.412 91.1101 213.309 91.696C213.206 92.282 213.077 92.7987 212.92 93.2461C212.764 93.69 212.59 94.07 212.398 94.386ZM224.755 96.1598C223.956 96.1598 223.264 95.984 222.678 95.6325C222.092 95.2809 221.637 94.7891 221.314 94.157C220.995 93.5249 220.835 92.7862 220.835 91.9411C220.835 91.0959 220.995 90.3555 221.314 89.7198C221.637 89.0842 222.092 88.5906 222.678 88.239C223.264 87.8874 223.956 87.7116 224.755 87.7116C225.554 87.7116 226.247 87.8874 226.833 88.239C227.419 88.5906 227.871 89.0842 228.191 89.7198C228.514 90.3555 228.676 91.0959 228.676 91.9411C228.676 92.7862 228.514 93.5249 228.191 94.157C227.871 94.7891 227.419 95.2809 226.833 95.6325C226.247 95.984 225.554 96.1598 224.755 96.1598ZM224.766 94.6151C225.199 94.6151 225.561 94.4961 225.852 94.2582C226.144 94.0167 226.36 93.6935 226.502 93.2887C226.648 92.8839 226.721 92.4329 226.721 91.9357C226.721 91.435 226.648 90.9822 226.502 90.5774C226.36 90.169 226.144 89.8441 225.852 89.6026C225.561 89.3612 225.199 89.2404 224.766 89.2404C224.322 89.2404 223.953 89.3612 223.658 89.6026C223.367 89.8441 223.148 90.169 223.003 90.5774C222.861 90.9822 222.79 91.435 222.79 91.9357C222.79 92.4329 222.861 92.8839 223.003 93.2887C223.148 93.6935 223.367 94.0167 223.658 94.2582C223.953 94.4961 224.322 94.6151 224.766 94.6151ZM233.431 96.1598C232.614 96.1598 231.913 95.9805 231.327 95.6218C230.745 95.2631 230.295 94.7678 229.979 94.1357C229.667 93.5 229.511 92.7685 229.511 91.9411C229.511 91.1101 229.67 90.3768 229.99 89.7411C230.31 89.1019 230.761 88.6048 231.343 88.2496C231.929 87.891 232.621 87.7116 233.42 87.7116C234.085 87.7116 234.672 87.8342 235.184 88.0792C235.699 88.3207 236.109 88.6634 236.414 89.1072C236.719 89.5476 236.894 90.0625 236.936 90.652H235.093C235.019 90.2578 234.841 89.9293 234.56 89.6665C234.283 89.4002 233.912 89.267 233.447 89.267C233.053 89.267 232.707 89.3736 232.408 89.5866C232.11 89.7962 231.878 90.098 231.711 90.4922C231.547 90.8864 231.466 91.3587 231.466 91.9091C231.466 92.4666 231.547 92.946 231.711 93.3473C231.874 93.745 232.103 94.0522 232.398 94.2688C232.696 94.4819 233.046 94.5884 233.447 94.5884C233.731 94.5884 233.985 94.5352 234.209 94.4286C234.436 94.3185 234.626 94.1605 234.779 93.9545C234.931 93.7486 235.036 93.4982 235.093 93.2035H236.936C236.89 93.7823 236.719 94.2955 236.425 94.7429C236.13 95.1868 235.729 95.5348 235.221 95.7869C234.713 96.0355 234.117 96.1598 233.431 96.1598ZM237.476 89.4002V87.8182H244.635V89.4002H241.987V96H240.123V89.4002H237.476ZM247.738 96.1651C247.219 96.1651 246.752 96.0728 246.337 95.8881C245.925 95.6999 245.598 95.4229 245.357 95.0572C245.119 94.6914 245 94.2404 245 93.7042C245 93.2425 245.085 92.8608 245.255 92.5589C245.426 92.2571 245.658 92.0156 245.953 91.8345C246.248 91.6534 246.58 91.5167 246.949 91.4244C247.322 91.3285 247.707 91.2592 248.105 91.2166C248.585 91.1669 248.973 91.1225 249.272 91.0835C249.57 91.0408 249.787 90.9769 249.922 90.8917C250.06 90.8029 250.129 90.6662 250.129 90.4815V90.4496C250.129 90.0483 250.01 89.7376 249.772 89.5174C249.534 89.2972 249.192 89.1871 248.744 89.1871C248.272 89.1871 247.897 89.2901 247.62 89.4961C247.347 89.7021 247.162 89.9453 247.066 90.2259L245.266 89.9702C245.408 89.473 245.642 89.0575 245.969 88.7237C246.296 88.3864 246.695 88.1342 247.168 87.9673C247.64 87.7969 248.162 87.7116 248.734 87.7116C249.128 87.7116 249.52 87.7578 249.911 87.8501C250.301 87.9425 250.658 88.0952 250.982 88.3082C251.305 88.5178 251.564 88.8036 251.759 89.1658C251.958 89.5281 252.058 89.9808 252.058 90.5241V96H250.204V94.8761H250.14C250.023 95.1033 249.858 95.3164 249.645 95.5153C249.435 95.7106 249.17 95.8686 248.851 95.9893C248.535 96.1065 248.164 96.1651 247.738 96.1651ZM248.238 94.7482C248.625 94.7482 248.961 94.6719 249.245 94.5192C249.529 94.3629 249.747 94.157 249.9 93.9013C250.056 93.6456 250.135 93.3668 250.135 93.065V92.1009C250.074 92.1506 249.971 92.1967 249.826 92.2393C249.684 92.282 249.524 92.3192 249.346 92.3512C249.169 92.3832 248.993 92.4116 248.819 92.4364C248.645 92.4613 248.494 92.4826 248.366 92.5004C248.078 92.5394 247.821 92.6033 247.594 92.6921C247.366 92.7809 247.187 92.9052 247.056 93.065C246.924 93.2212 246.859 93.4237 246.859 93.6722C246.859 94.0273 246.988 94.2955 247.247 94.4766C247.507 94.6577 247.837 94.7482 248.238 94.7482ZM253.546 96V87.8182H256.982C257.952 87.8182 258.717 88.0117 259.278 88.3988C259.843 88.7859 260.125 89.3256 260.125 90.0181C260.125 90.4762 259.965 90.8509 259.646 91.142C259.329 91.4297 258.898 91.6232 258.351 91.7227C258.781 91.7582 259.157 91.8665 259.48 92.0476C259.807 92.2287 260.063 92.4666 260.247 92.7614C260.432 93.0561 260.524 93.3952 260.524 93.7788C260.524 94.2298 260.405 94.6222 260.168 94.956C259.933 95.2862 259.59 95.5437 259.139 95.7283C258.692 95.9094 258.149 96 257.509 96H253.546ZM255.352 94.4819H257.509C257.865 94.4819 258.143 94.3984 258.346 94.2315C258.548 94.0611 258.649 93.8303 258.649 93.5391C258.649 93.2017 258.548 92.9371 258.346 92.7454C258.143 92.5501 257.865 92.4524 257.509 92.4524H255.352V94.4819ZM255.352 91.206H257.019C257.282 91.206 257.508 91.1687 257.696 91.0941C257.884 91.016 258.028 90.9077 258.127 90.7692C258.227 90.6271 258.277 90.4585 258.277 90.2631C258.277 89.9826 258.161 89.7624 257.93 89.6026C257.703 89.4428 257.387 89.3629 256.982 89.3629H255.352V91.206ZM261.666 96V87.8182H263.594V91.1207H264.297L266.758 87.8182H269.081L266.05 91.8345L269.112 96H266.779L264.537 92.9158H263.594V96H261.666ZM272.11 96.1651C271.592 96.1651 271.125 96.0728 270.709 95.8881C270.297 95.6999 269.971 95.4229 269.729 95.0572C269.491 94.6914 269.372 94.2404 269.372 93.7042C269.372 93.2425 269.458 92.8608 269.628 92.5589C269.798 92.2571 270.031 92.0156 270.326 91.8345C270.621 91.6534 270.953 91.5167 271.322 91.4244C271.695 91.3285 272.08 91.2592 272.478 91.2166C272.957 91.1669 273.346 91.1225 273.644 91.0835C273.943 91.0408 274.159 90.9769 274.294 90.8917C274.433 90.8029 274.502 90.6662 274.502 90.4815V90.4496C274.502 90.0483 274.383 89.7376 274.145 89.5174C273.907 89.2972 273.564 89.1871 273.117 89.1871C272.645 89.1871 272.27 89.2901 271.993 89.4961C271.72 89.7021 271.535 89.9453 271.439 90.2259L269.639 89.9702C269.781 89.473 270.015 89.0575 270.342 88.7237C270.668 88.3864 271.068 88.1342 271.54 87.9673C272.013 87.7969 272.535 87.7116 273.106 87.7116C273.5 87.7116 273.893 87.7578 274.284 87.8501C274.674 87.9425 275.031 88.0952 275.354 88.3082C275.677 88.5178 275.937 88.8036 276.132 89.1658C276.331 89.5281 276.43 89.9808 276.43 90.5241V96H274.576V94.8761H274.513C274.395 95.1033 274.23 95.3164 274.017 95.5153C273.808 95.7106 273.543 95.8686 273.223 95.9893C272.907 96.1065 272.536 96.1651 272.11 96.1651ZM272.611 94.7482C272.998 94.7482 273.334 94.6719 273.618 94.5192C273.902 94.3629 274.12 94.157 274.273 93.9013C274.429 93.6456 274.507 93.3668 274.507 93.065V92.1009C274.447 92.1506 274.344 92.1967 274.198 92.2393C274.056 92.282 273.896 92.3192 273.719 92.3512C273.541 92.3832 273.366 92.4116 273.192 92.4364C273.018 92.4613 272.867 92.4826 272.739 92.5004C272.451 92.5394 272.194 92.6033 271.966 92.6921C271.739 92.7809 271.56 92.9052 271.428 93.065C271.297 93.2212 271.231 93.4237 271.231 93.6722C271.231 94.0273 271.361 94.2955 271.62 94.4766C271.879 94.6577 272.21 94.7482 272.611 94.7482ZM284.812 96.1598C283.992 96.1598 283.283 95.9893 282.687 95.6484C282.094 95.304 281.637 94.8175 281.318 94.1889C280.998 93.5568 280.838 92.8129 280.838 91.957C280.838 91.1154 280.998 90.3768 281.318 89.7411C281.641 89.1019 282.092 88.6048 282.671 88.2496C283.249 87.891 283.929 87.7116 284.711 87.7116C285.215 87.7116 285.691 87.7933 286.138 87.9567C286.589 88.1165 286.987 88.3651 287.331 88.7024C287.679 89.0398 287.953 89.4695 288.152 89.9915C288.351 90.5099 288.45 91.1278 288.45 91.8452V92.4364H281.744V91.1367H286.602C286.598 90.7674 286.518 90.4389 286.362 90.1513C286.206 89.8601 285.987 89.631 285.707 89.4641C285.43 89.2972 285.107 89.2138 284.737 89.2138C284.343 89.2138 283.997 89.3097 283.699 89.5014C283.4 89.6896 283.168 89.9382 283.001 90.2472C282.838 90.5526 282.754 90.8881 282.751 91.2539V92.3885C282.751 92.8643 282.838 93.2727 283.012 93.6136C283.186 93.951 283.429 94.2102 283.741 94.3913C284.054 94.5689 284.42 94.6577 284.839 94.6577C285.119 94.6577 285.373 94.6186 285.6 94.5405C285.828 94.4588 286.025 94.3398 286.192 94.1836C286.358 94.0273 286.485 93.8338 286.57 93.603L288.37 93.8054C288.257 94.2812 288.04 94.6967 287.72 95.0518C287.404 95.4034 286.999 95.6768 286.506 95.8722C286.012 96.0639 285.448 96.1598 284.812 96.1598ZM288.907 98.3757V94.4126H289.557C289.731 94.2777 289.876 94.0948 289.994 93.864C290.111 93.6296 290.207 93.3544 290.281 93.0384C290.359 92.7187 290.423 92.3619 290.473 91.9677C290.523 91.57 290.567 91.142 290.606 90.6839L290.841 87.8182H296.753V94.4126H298.021V98.3757H296.157V96H290.803V98.3757H288.907ZM291.538 94.4126H294.91V89.3736H292.513L292.385 90.6839C292.314 91.5504 292.22 92.2926 292.103 92.9105C291.986 93.5284 291.798 94.0291 291.538 94.4126ZM300.316 90.4815H302.729C303.773 90.4815 304.58 90.7354 305.152 91.2433C305.724 91.7511 306.012 92.4169 306.015 93.2408C306.012 93.777 305.88 94.2528 305.621 94.6683C305.365 95.0838 304.992 95.4105 304.502 95.6484C304.016 95.8828 303.425 96 302.729 96H299.01V87.8182H300.87V94.418H302.729C303.148 94.418 303.492 94.3114 303.762 94.0984C304.032 93.8817 304.167 93.6048 304.167 93.2674C304.167 92.9123 304.032 92.6229 303.762 92.3991C303.492 92.1754 303.148 92.0636 302.729 92.0636H300.316V90.4815ZM307.033 96V87.8182H308.961V96H307.033Z" fill="black"/>
<path d="M35.5952 79V22.2727H71.9361V30.8871H45.8714V46.2876H69.4432V54.902H45.8714V79H35.5952ZM92.3903 79.831C88.2355 79.831 84.6346 78.9169 81.5877 77.0888C78.5409 75.2607 76.1772 72.7031 74.4968 69.4162C72.8349 66.1293 72.0039 62.2884 72.0039 57.8935C72.0039 53.4986 72.8349 49.6484 74.4968 46.343C76.1772 43.0376 78.5409 40.4709 81.5877 38.6428C84.6346 36.8146 88.2355 35.9006 92.3903 35.9006C96.5451 35.9006 100.146 36.8146 103.193 38.6428C106.24 40.4709 108.594 43.0376 110.256 46.343C111.936 49.6484 112.777 53.4986 112.777 57.8935C112.777 62.2884 111.936 66.1293 110.256 69.4162C108.594 72.7031 106.24 75.2607 103.193 77.0888C100.146 78.9169 96.5451 79.831 92.3903 79.831ZM92.4457 71.7983C94.6985 71.7983 96.5821 71.1797 98.0963 69.9425C99.6105 68.6868 100.737 67.0064 101.476 64.9013C102.233 62.7962 102.611 60.451 102.611 57.8658C102.611 55.2621 102.233 52.9077 101.476 50.8026C100.737 48.679 99.6105 46.9893 98.0963 45.7337C96.5821 44.478 94.6985 43.8501 92.4457 43.8501C90.1375 43.8501 88.217 44.478 86.6843 45.7337C85.1701 46.9893 84.0345 48.679 83.2774 50.8026C82.5387 52.9077 82.1694 55.2621 82.1694 57.8658C82.1694 60.451 82.5387 62.7962 83.2774 64.9013C84.0345 67.0064 85.1701 68.6868 86.6843 69.9425C88.217 71.1797 90.1375 71.7983 92.4457 71.7983ZM135.945 79.831C131.791 79.831 128.19 78.9169 125.143 77.0888C122.096 75.2607 119.732 72.7031 118.052 69.4162C116.39 66.1293 115.559 62.2884 115.559 57.8935C115.559 53.4986 116.39 49.6484 118.052 46.343C119.732 43.0376 122.096 40.4709 125.143 38.6428C128.19 36.8146 131.791 35.9006 135.945 35.9006C140.1 35.9006 143.701 36.8146 146.748 38.6428C149.795 40.4709 152.149 43.0376 153.811 46.343C155.492 49.6484 156.332 53.4986 156.332 57.8935C156.332 62.2884 155.492 66.1293 153.811 69.4162C152.149 72.7031 149.795 75.2607 146.748 77.0888C143.701 78.9169 140.1 79.831 135.945 79.831ZM136.001 71.7983C138.254 71.7983 140.137 71.1797 141.651 69.9425C143.166 68.6868 144.292 67.0064 145.031 64.9013C145.788 62.7962 146.166 60.451 146.166 57.8658C146.166 55.2621 145.788 52.9077 145.031 50.8026C144.292 48.679 143.166 46.9893 141.651 45.7337C140.137 44.478 138.254 43.8501 136.001 43.8501C133.693 43.8501 131.772 44.478 130.239 45.7337C128.725 46.9893 127.59 48.679 126.832 50.8026C126.094 52.9077 125.725 55.2621 125.725 57.8658C125.725 60.451 126.094 62.7962 126.832 64.9013C127.59 67.0064 128.725 68.6868 130.239 69.9425C131.772 71.1797 133.693 71.7983 136.001 71.7983ZM176.731 79.7479C173.388 79.7479 170.397 78.8892 167.756 77.1719C165.116 75.4545 163.029 72.9616 161.496 69.6932C159.964 66.4247 159.197 62.4545 159.197 57.7827C159.197 53.0554 159.973 49.0668 161.524 45.8168C163.094 42.5483 165.208 40.0831 167.867 38.4212C170.526 36.7408 173.49 35.9006 176.758 35.9006C179.251 35.9006 181.301 36.3253 182.907 37.1747C184.514 38.0057 185.788 39.0121 186.73 40.1939C187.672 41.3572 188.401 42.456 188.918 43.4901H189.334V22.2727H199.388V79H189.527V72.2969H188.918C188.401 73.331 187.653 74.4297 186.674 75.593C185.696 76.7379 184.403 77.7166 182.797 78.5291C181.19 79.3416 179.168 79.7479 176.731 79.7479ZM179.528 71.5213C181.652 71.5213 183.461 70.9489 184.957 69.804C186.453 68.6406 187.589 67.0249 188.364 64.9567C189.14 62.8885 189.527 60.4787 189.527 57.7273C189.527 54.9759 189.14 52.5845 188.364 50.5533C187.607 48.522 186.481 46.9432 184.985 45.8168C183.508 44.6903 181.689 44.1271 179.528 44.1271C177.294 44.1271 175.429 44.7088 173.933 45.8722C172.437 47.0355 171.311 48.642 170.554 50.6918C169.797 52.7415 169.418 55.0866 169.418 57.7273C169.418 60.3864 169.797 62.7592 170.554 64.8459C171.329 66.9141 172.465 68.5483 173.961 69.7486C175.475 70.9304 177.331 71.5213 179.528 71.5213ZM244.619 40.3878C244.157 38.892 243.52 37.5533 242.708 36.3714C241.914 35.1712 240.954 34.1463 239.827 33.2969C238.719 32.4474 237.445 31.8104 236.005 31.3857C234.564 30.9425 232.995 30.7209 231.296 30.7209C228.249 30.7209 225.535 31.4872 223.152 33.0199C220.77 34.5526 218.896 36.8054 217.53 39.7784C216.182 42.733 215.508 46.3338 215.508 50.581C215.508 54.8651 216.182 58.4936 217.53 61.4666C218.878 64.4396 220.752 66.7017 223.152 68.2528C225.553 69.7855 228.341 70.5518 231.518 70.5518C234.398 70.5518 236.891 69.9979 238.996 68.8899C241.12 67.782 242.754 66.2124 243.899 64.1811C245.044 62.1314 245.616 59.7308 245.616 56.9794L247.943 57.3395H232.542V49.3068H255.56V56.1207C255.56 60.9773 254.526 65.1783 252.458 68.7237C250.39 72.2692 247.546 75.0021 243.927 76.9226C240.307 78.8246 236.152 79.7756 231.462 79.7756C226.236 79.7756 221.648 78.603 217.696 76.2578C213.763 73.8942 210.688 70.5426 208.472 66.2031C206.275 61.8452 205.176 56.6747 205.176 50.6918C205.176 46.1122 205.822 42.022 207.115 38.4212C208.426 34.8203 210.254 31.7642 212.599 29.2528C214.944 26.723 217.696 24.8026 220.853 23.4915C224.011 22.1619 227.446 21.4972 231.157 21.4972C234.297 21.4972 237.224 21.9588 239.938 22.8821C242.652 23.7869 245.062 25.0795 247.167 26.7599C249.291 28.4403 251.036 30.4347 252.402 32.7429C253.769 35.0511 254.665 37.5994 255.089 40.3878H244.619ZM312.286 50.6364C312.286 56.7486 311.141 61.9837 308.851 66.3416C306.58 70.6811 303.478 74.005 299.545 76.3132C295.63 78.6214 291.189 79.7756 286.221 79.7756C281.254 79.7756 276.804 78.6214 272.871 76.3132C268.956 73.9865 265.854 70.6534 263.564 66.3139C261.292 61.956 260.157 56.7301 260.157 50.6364C260.157 44.5241 261.292 39.2983 263.564 34.9588C265.854 30.6009 268.956 27.2678 272.871 24.9595C276.804 22.6513 281.254 21.4972 286.221 21.4972C291.189 21.4972 295.63 22.6513 299.545 24.9595C303.478 27.2678 306.58 30.6009 308.851 34.9588C311.141 39.2983 312.286 44.5241 312.286 50.6364ZM301.954 50.6364C301.954 46.3338 301.28 42.7053 299.932 39.7507C298.603 36.7777 296.756 34.5341 294.393 33.0199C292.029 31.4872 289.305 30.7209 286.221 30.7209C283.138 30.7209 280.414 31.4872 278.05 33.0199C275.687 34.5341 273.831 36.7777 272.483 39.7507C271.153 42.7053 270.488 46.3338 270.488 50.6364C270.488 54.9389 271.153 58.5767 272.483 61.5497C273.831 64.5043 275.687 66.7479 278.05 68.2805C280.414 69.7947 283.138 70.5518 286.221 70.5518C289.305 70.5518 292.029 69.7947 294.393 68.2805C296.756 66.7479 298.603 64.5043 299.932 61.5497C301.28 58.5767 301.954 54.9389 301.954 50.6364Z" fill="black"/>
</svg>
