<svg width="348" height="115" viewBox="0 0 348 115" fill="none" xmlns="http://www.w3.org/2000/svg">
<rect width="348" height="115" fill="white"/>
<path d="M209.388 98.6314V94.386H210.118C210.363 94.1907 210.592 93.9155 210.805 93.5604C211.018 93.2053 211.2 92.7187 211.349 92.1009C211.498 91.483 211.601 90.6839 211.658 89.7038L211.945 85.0909H218.918V94.386H220.132V98.6207H218.236V96H211.285V98.6314H209.388ZM212.419 94.386H217.022V86.7475H213.724L213.554 89.7038C213.508 90.446 213.433 91.1101 213.33 91.696C213.227 92.282 213.098 92.7987 212.941 93.2461C212.785 93.69 212.611 94.07 212.419 94.386ZM224.776 96.1598C223.977 96.1598 223.285 95.984 222.699 95.6325C222.113 95.2809 221.658 94.7891 221.335 94.157C221.015 93.5249 220.856 92.7862 220.856 91.9411C220.856 91.0959 221.015 90.3555 221.335 89.7198C221.658 89.0842 222.113 88.5906 222.699 88.239C223.285 87.8874 223.977 87.7116 224.776 87.7116C225.575 87.7116 226.268 87.8874 226.853 88.239C227.439 88.5906 227.892 89.0842 228.212 89.7198C228.535 90.3555 228.697 91.0959 228.697 91.9411C228.697 92.7862 228.535 93.5249 228.212 94.157C227.892 94.7891 227.439 95.2809 226.853 95.6325C226.268 95.984 225.575 96.1598 224.776 96.1598ZM224.787 94.6151C225.22 94.6151 225.582 94.4961 225.873 94.2582C226.165 94.0167 226.381 93.6935 226.523 93.2887C226.669 92.8839 226.742 92.4329 226.742 91.9357C226.742 91.435 226.669 90.9822 226.523 90.5774C226.381 90.169 226.165 89.8441 225.873 89.6026C225.582 89.3612 225.22 89.2404 224.787 89.2404C224.343 89.2404 223.974 89.3612 223.679 89.6026C223.388 89.8441 223.169 90.169 223.024 90.5774C222.882 90.9822 222.811 91.435 222.811 91.9357C222.811 92.4329 222.882 92.8839 223.024 93.2887C223.169 93.6935 223.388 94.0167 223.679 94.2582C223.974 94.4961 224.343 94.6151 224.787 94.6151ZM233.452 96.1598C232.635 96.1598 231.934 95.9805 231.348 95.6218C230.766 95.2631 230.316 94.7678 230 94.1357C229.688 93.5 229.532 92.7685 229.532 91.9411C229.532 91.1101 229.691 90.3768 230.011 89.7411C230.331 89.1019 230.782 88.6048 231.364 88.2496C231.95 87.891 232.642 87.7116 233.441 87.7116C234.105 87.7116 234.693 87.8342 235.205 88.0792C235.719 88.3207 236.13 88.6634 236.435 89.1072C236.74 89.5476 236.914 90.0625 236.957 90.652H235.114C235.039 90.2578 234.862 89.9293 234.581 89.6665C234.304 89.4002 233.933 89.267 233.468 89.267C233.074 89.267 232.728 89.3736 232.429 89.5866C232.131 89.7962 231.898 90.098 231.732 90.4922C231.568 90.8864 231.486 91.3587 231.486 91.9091C231.486 92.4666 231.568 92.946 231.732 93.3473C231.895 93.745 232.124 94.0522 232.419 94.2688C232.717 94.4819 233.067 94.5884 233.468 94.5884C233.752 94.5884 234.006 94.5352 234.23 94.4286C234.457 94.3185 234.647 94.1605 234.8 93.9545C234.952 93.7486 235.057 93.4982 235.114 93.2035H236.957C236.911 93.7823 236.74 94.2955 236.446 94.7429C236.151 95.1868 235.75 95.5348 235.242 95.7869C234.734 96.0355 234.137 96.1598 233.452 96.1598ZM237.496 89.4002V87.8182H244.656V89.4002H242.008V96H240.144V89.4002H237.496ZM247.758 96.1651C247.24 96.1651 246.773 96.0728 246.358 95.8881C245.946 95.6999 245.619 95.4229 245.377 95.0572C245.139 94.6914 245.021 94.2404 245.021 93.7042C245.021 93.2425 245.106 92.8608 245.276 92.5589C245.447 92.2571 245.679 92.0156 245.974 91.8345C246.269 91.6534 246.601 91.5167 246.97 91.4244C247.343 91.3285 247.728 91.2592 248.126 91.2166C248.605 91.1669 248.994 91.1225 249.293 91.0835C249.591 91.0408 249.807 90.9769 249.942 90.8917C250.081 90.8029 250.15 90.6662 250.15 90.4815V90.4496C250.15 90.0483 250.031 89.7376 249.793 89.5174C249.555 89.2972 249.213 89.1871 248.765 89.1871C248.293 89.1871 247.918 89.2901 247.641 89.4961C247.368 89.7021 247.183 89.9453 247.087 90.2259L245.287 89.9702C245.429 89.473 245.663 89.0575 245.99 88.7237C246.317 88.3864 246.716 88.1342 247.188 87.9673C247.661 87.7969 248.183 87.7116 248.755 87.7116C249.149 87.7116 249.541 87.7578 249.932 87.8501C250.322 87.9425 250.679 88.0952 251.002 88.3082C251.326 88.5178 251.585 88.8036 251.78 89.1658C251.979 89.5281 252.078 89.9808 252.078 90.5241V96H250.225V94.8761H250.161C250.044 95.1033 249.878 95.3164 249.665 95.5153C249.456 95.7106 249.191 95.8686 248.872 95.9893C248.556 96.1065 248.185 96.1651 247.758 96.1651ZM248.259 94.7482C248.646 94.7482 248.982 94.6719 249.266 94.5192C249.55 94.3629 249.768 94.157 249.921 93.9013C250.077 93.6456 250.155 93.3668 250.155 93.065V92.1009C250.095 92.1506 249.992 92.1967 249.847 92.2393C249.704 92.282 249.545 92.3192 249.367 92.3512C249.19 92.3832 249.014 92.4116 248.84 92.4364C248.666 92.4613 248.515 92.4826 248.387 92.5004C248.099 92.5394 247.842 92.6033 247.615 92.6921C247.387 92.7809 247.208 92.9052 247.077 93.065C246.945 93.2212 246.88 93.4237 246.88 93.6722C246.88 94.0273 247.009 94.2955 247.268 94.4766C247.528 94.6577 247.858 94.7482 248.259 94.7482ZM253.567 96V87.8182H257.003C257.973 87.8182 258.738 88.0117 259.299 88.3988C259.863 88.7859 260.146 89.3256 260.146 90.0181C260.146 90.4762 259.986 90.8509 259.666 91.142C259.35 91.4297 258.919 91.6232 258.372 91.7227C258.802 91.7582 259.178 91.8665 259.501 92.0476C259.828 92.2287 260.084 92.4666 260.268 92.7614C260.453 93.0561 260.545 93.3952 260.545 93.7788C260.545 94.2298 260.426 94.6222 260.188 94.956C259.954 95.2862 259.611 95.5437 259.16 95.7283C258.713 95.9094 258.17 96 257.53 96H253.567ZM255.373 94.4819H257.53C257.886 94.4819 258.164 94.3984 258.367 94.2315C258.569 94.0611 258.67 93.8303 258.67 93.5391C258.67 93.2017 258.569 92.9371 258.367 92.7454C258.164 92.5501 257.886 92.4524 257.53 92.4524H255.373V94.4819ZM255.373 91.206H257.04C257.303 91.206 257.529 91.1687 257.717 91.0941C257.905 91.016 258.049 90.9077 258.148 90.7692C258.248 90.6271 258.297 90.4585 258.297 90.2631C258.297 89.9826 258.182 89.7624 257.951 89.6026C257.724 89.4428 257.408 89.3629 257.003 89.3629H255.373V91.206ZM261.687 96V87.8182H263.615V91.1207H264.318L266.779 87.8182H269.101L266.071 91.8345L269.133 96H266.8L264.558 92.9158H263.615V96H261.687ZM272.131 96.1651C271.613 96.1651 271.146 96.0728 270.73 95.8881C270.318 95.6999 269.992 95.4229 269.75 95.0572C269.512 94.6914 269.393 94.2404 269.393 93.7042C269.393 93.2425 269.478 92.8608 269.649 92.5589C269.819 92.2571 270.052 92.0156 270.347 91.8345C270.641 91.6534 270.973 91.5167 271.343 91.4244C271.716 91.3285 272.101 91.2592 272.499 91.2166C272.978 91.1669 273.367 91.1225 273.665 91.0835C273.963 91.0408 274.18 90.9769 274.315 90.8917C274.454 90.8029 274.523 90.6662 274.523 90.4815V90.4496C274.523 90.0483 274.404 89.7376 274.166 89.5174C273.928 89.2972 273.585 89.1871 273.138 89.1871C272.666 89.1871 272.291 89.2901 272.014 89.4961C271.74 89.7021 271.556 89.9453 271.46 90.2259L269.66 89.9702C269.802 89.473 270.036 89.0575 270.363 88.7237C270.689 88.3864 271.089 88.1342 271.561 87.9673C272.033 87.7969 272.555 87.7116 273.127 87.7116C273.521 87.7116 273.914 87.7578 274.304 87.8501C274.695 87.9425 275.052 88.0952 275.375 88.3082C275.698 88.5178 275.957 88.8036 276.153 89.1658C276.352 89.5281 276.451 89.9808 276.451 90.5241V96H274.597V94.8761H274.533C274.416 95.1033 274.251 95.3164 274.038 95.5153C273.829 95.7106 273.564 95.8686 273.244 95.9893C272.928 96.1065 272.557 96.1651 272.131 96.1651ZM272.632 94.7482C273.019 94.7482 273.354 94.6719 273.639 94.5192C273.923 94.3629 274.141 94.157 274.294 93.9013C274.45 93.6456 274.528 93.3668 274.528 93.065V92.1009C274.468 92.1506 274.365 92.1967 274.219 92.2393C274.077 92.282 273.917 92.3192 273.74 92.3512C273.562 92.3832 273.386 92.4116 273.212 92.4364C273.038 92.4613 272.887 92.4826 272.76 92.5004C272.472 92.5394 272.215 92.6033 271.987 92.6921C271.76 92.7809 271.581 92.9052 271.449 93.065C271.318 93.2212 271.252 93.4237 271.252 93.6722C271.252 94.0273 271.382 94.2955 271.641 94.4766C271.9 94.6577 272.231 94.7482 272.632 94.7482ZM284.833 96.1598C284.013 96.1598 283.304 95.9893 282.707 95.6484C282.114 95.304 281.658 94.8175 281.339 94.1889C281.019 93.5568 280.859 92.8129 280.859 91.957C280.859 91.1154 281.019 90.3768 281.339 89.7411C281.662 89.1019 282.113 88.6048 282.692 88.2496C283.27 87.891 283.95 87.7116 284.732 87.7116C285.236 87.7116 285.712 87.7933 286.159 87.9567C286.61 88.1165 287.008 88.3651 287.352 88.7024C287.7 89.0398 287.974 89.4695 288.173 89.9915C288.372 90.5099 288.471 91.1278 288.471 91.8452V92.4364H281.765V91.1367H286.623C286.619 90.7674 286.539 90.4389 286.383 90.1513C286.227 89.8601 286.008 89.631 285.728 89.4641C285.451 89.2972 285.128 89.2138 284.758 89.2138C284.364 89.2138 284.018 89.3097 283.72 89.5014C283.421 89.6896 283.189 89.9382 283.022 90.2472C282.858 90.5526 282.775 90.8881 282.771 91.2539V92.3885C282.771 92.8643 282.858 93.2727 283.032 93.6136C283.206 93.951 283.45 94.2102 283.762 94.3913C284.075 94.5689 284.44 94.6577 284.859 94.6577C285.14 94.6577 285.394 94.6186 285.621 94.5405C285.848 94.4588 286.046 94.3398 286.212 94.1836C286.379 94.0273 286.505 93.8338 286.591 93.603L288.391 93.8054C288.277 94.2812 288.061 94.6967 287.741 95.0518C287.425 95.4034 287.02 95.6768 286.527 95.8722C286.033 96.0639 285.468 96.1598 284.833 96.1598ZM288.928 98.3757V94.4126H289.578C289.752 94.2777 289.897 94.0948 290.015 93.864C290.132 93.6296 290.228 93.3544 290.302 93.0384C290.38 92.7187 290.444 92.3619 290.494 91.9677C290.544 91.57 290.588 91.142 290.627 90.6839L290.861 87.8182H296.774V94.4126H298.042V98.3757H296.178V96H290.824V98.3757H288.928ZM291.559 94.4126H294.931V89.3736H292.534L292.406 90.6839C292.335 91.5504 292.241 92.2926 292.124 92.9105C292.007 93.5284 291.818 94.0291 291.559 94.4126ZM300.336 90.4815H302.749C303.793 90.4815 304.601 90.7354 305.173 91.2433C305.745 91.7511 306.032 92.4169 306.036 93.2408C306.032 93.777 305.901 94.2528 305.642 94.6683C305.386 95.0838 305.013 95.4105 304.523 95.6484C304.037 95.8828 303.445 96 302.749 96H299.031V87.8182H300.89V94.418H302.749C303.168 94.418 303.513 94.3114 303.783 94.0984C304.053 93.8817 304.188 93.6048 304.188 93.2674C304.188 92.9123 304.053 92.6229 303.783 92.3991C303.513 92.1754 303.168 92.0636 302.749 92.0636H300.336V90.4815ZM307.053 96V87.8182H308.982V96H307.053Z" fill="black"/>
<path d="M35.892 79V22.2727H72.233V30.8871H46.1683V46.2876H69.7401V54.902H46.1683V79H35.892ZM92.6872 79.831C88.5324 79.831 84.9315 78.9169 81.8846 77.0888C78.8377 75.2607 76.4741 72.7031 74.7937 69.4162C73.1318 66.1293 72.3008 62.2884 72.3008 57.8935C72.3008 53.4986 73.1318 49.6484 74.7937 46.343C76.4741 43.0376 78.8377 40.4709 81.8846 38.6428C84.9315 36.8146 88.5324 35.9006 92.6872 35.9006C96.842 35.9006 100.443 36.8146 103.49 38.6428C106.537 40.4709 108.891 43.0376 110.553 46.343C112.233 49.6484 113.074 53.4986 113.074 57.8935C113.074 62.2884 112.233 66.1293 110.553 69.4162C108.891 72.7031 106.537 75.2607 103.49 77.0888C100.443 78.9169 96.842 79.831 92.6872 79.831ZM92.7426 71.7983C94.9954 71.7983 96.8789 71.1797 98.3931 69.9425C99.9073 68.6868 101.034 67.0064 101.772 64.9013C102.53 62.7962 102.908 60.451 102.908 57.8658C102.908 55.2621 102.53 52.9077 101.772 50.8026C101.034 48.679 99.9073 46.9893 98.3931 45.7337C96.8789 44.478 94.9954 43.8501 92.7426 43.8501C90.4343 43.8501 88.5139 44.478 86.9812 45.7337C85.467 46.9893 84.3314 48.679 83.5743 50.8026C82.8356 52.9077 82.4663 55.2621 82.4663 57.8658C82.4663 60.451 82.8356 62.7962 83.5743 64.9013C84.3314 67.0064 85.467 68.6868 86.9812 69.9425C88.5139 71.1797 90.4343 71.7983 92.7426 71.7983ZM136.242 79.831C132.087 79.831 128.487 78.9169 125.44 77.0888C122.393 75.2607 120.029 72.7031 118.349 69.4162C116.687 66.1293 115.856 62.2884 115.856 57.8935C115.856 53.4986 116.687 49.6484 118.349 46.343C120.029 43.0376 122.393 40.4709 125.44 38.6428C128.487 36.8146 132.087 35.9006 136.242 35.9006C140.397 35.9006 143.998 36.8146 147.045 38.6428C150.092 40.4709 152.446 43.0376 154.108 46.343C155.788 49.6484 156.629 53.4986 156.629 57.8935C156.629 62.2884 155.788 66.1293 154.108 69.4162C152.446 72.7031 150.092 75.2607 147.045 77.0888C143.998 78.9169 140.397 79.831 136.242 79.831ZM136.298 71.7983C138.55 71.7983 140.434 71.1797 141.948 69.9425C143.462 68.6868 144.589 67.0064 145.327 64.9013C146.085 62.7962 146.463 60.451 146.463 57.8658C146.463 55.2621 146.085 52.9077 145.327 50.8026C144.589 48.679 143.462 46.9893 141.948 45.7337C140.434 44.478 138.55 43.8501 136.298 43.8501C133.989 43.8501 132.069 44.478 130.536 45.7337C129.022 46.9893 127.886 48.679 127.129 50.8026C126.391 52.9077 126.021 55.2621 126.021 57.8658C126.021 60.451 126.391 62.7962 127.129 64.9013C127.886 67.0064 129.022 68.6868 130.536 69.9425C132.069 71.1797 133.989 71.7983 136.298 71.7983ZM177.027 79.7479C173.685 79.7479 170.694 78.8892 168.053 77.1719C165.412 75.4545 163.326 72.9616 161.793 69.6932C160.26 66.4247 159.494 62.4545 159.494 57.7827C159.494 53.0554 160.27 49.0668 161.821 45.8168C163.39 42.5483 165.505 40.0831 168.164 38.4212C170.823 36.7408 173.787 35.9006 177.055 35.9006C179.548 35.9006 181.598 36.3253 183.204 37.1747C184.811 38.0057 186.085 39.0121 187.027 40.1939C187.969 41.3572 188.698 42.456 189.215 43.4901H189.63V22.2727H199.685V79H189.824V72.2969H189.215C188.698 73.331 187.95 74.4297 186.971 75.593C185.993 76.7379 184.7 77.7166 183.094 78.5291C181.487 79.3416 179.465 79.7479 177.027 79.7479ZM179.825 71.5213C181.949 71.5213 183.758 70.9489 185.254 69.804C186.75 68.6406 187.885 67.0249 188.661 64.9567C189.437 62.8885 189.824 60.4787 189.824 57.7273C189.824 54.9759 189.437 52.5845 188.661 50.5533C187.904 48.522 186.777 46.9432 185.282 45.8168C183.804 44.6903 181.986 44.1271 179.825 44.1271C177.591 44.1271 175.726 44.7088 174.23 45.8722C172.734 47.0355 171.608 48.642 170.851 50.6918C170.094 52.7415 169.715 55.0866 169.715 57.7273C169.715 60.3864 170.094 62.7592 170.851 64.8459C171.626 66.9141 172.762 68.5483 174.258 69.7486C175.772 70.9304 177.628 71.5213 179.825 71.5213ZM244.916 40.3878C244.454 38.892 243.817 37.5533 243.005 36.3714C242.211 35.1712 241.25 34.1463 240.124 33.2969C239.016 32.4474 237.742 31.8104 236.302 31.3857C234.861 30.9425 233.292 30.7209 231.593 30.7209C228.546 30.7209 225.831 31.4872 223.449 33.0199C221.067 34.5526 219.193 36.8054 217.826 39.7784C216.478 42.733 215.804 46.3338 215.804 50.581C215.804 54.8651 216.478 58.4936 217.826 61.4666C219.174 64.4396 221.049 66.7017 223.449 68.2528C225.85 69.7855 228.638 70.5518 231.814 70.5518C234.695 70.5518 237.188 69.9979 239.293 68.8899C241.417 67.782 243.051 66.2124 244.196 64.1811C245.341 62.1314 245.913 59.7308 245.913 56.9794L248.24 57.3395H232.839V49.3068H255.857V56.1207C255.857 60.9773 254.823 65.1783 252.755 68.7237C250.687 72.2692 247.843 75.0021 244.224 76.9226C240.604 78.8246 236.449 79.7756 231.759 79.7756C226.533 79.7756 221.944 78.603 217.993 76.2578C214.059 73.8942 210.985 70.5426 208.769 66.2031C206.572 61.8452 205.473 56.6747 205.473 50.6918C205.473 46.1122 206.119 42.022 207.412 38.4212C208.723 34.8203 210.551 31.7642 212.896 29.2528C215.241 26.723 217.993 24.8026 221.15 23.4915C224.308 22.1619 227.743 21.4972 231.454 21.4972C234.594 21.4972 237.52 21.9588 240.235 22.8821C242.949 23.7869 245.359 25.0795 247.464 26.7599C249.588 28.4403 251.333 30.4347 252.699 32.7429C254.066 35.0511 254.961 37.5994 255.386 40.3878H244.916ZM312.583 50.6364C312.583 56.7486 311.438 61.9837 309.148 66.3416C306.877 70.6811 303.775 74.005 299.841 76.3132C295.927 78.6214 291.486 79.7756 286.518 79.7756C281.551 79.7756 277.101 78.6214 273.167 76.3132C269.253 73.9865 266.15 70.6534 263.861 66.3139C261.589 61.956 260.454 56.7301 260.454 50.6364C260.454 44.5241 261.589 39.2983 263.861 34.9588C266.15 30.6009 269.253 27.2678 273.167 24.9595C277.101 22.6513 281.551 21.4972 286.518 21.4972C291.486 21.4972 295.927 22.6513 299.841 24.9595C303.775 27.2678 306.877 30.6009 309.148 34.9588C311.438 39.2983 312.583 44.5241 312.583 50.6364ZM302.251 50.6364C302.251 46.3338 301.577 42.7053 300.229 39.7507C298.9 36.7777 297.053 34.5341 294.689 33.0199C292.326 31.4872 289.602 30.7209 286.518 30.7209C283.434 30.7209 280.711 31.4872 278.347 33.0199C275.983 34.5341 274.128 36.7777 272.78 39.7507C271.45 42.7053 270.785 46.3338 270.785 50.6364C270.785 54.9389 271.45 58.5767 272.78 61.5497C274.128 64.5043 275.983 66.7479 278.347 68.2805C280.711 69.7947 283.434 70.5518 286.518 70.5518C289.602 70.5518 292.326 69.7947 294.689 68.2805C297.053 66.7479 298.9 64.5043 300.229 61.5497C301.577 58.5767 302.251 54.9389 302.251 50.6364Z" fill="black"/>
</svg>
