<svg width="46" height="46" viewBox="0 0 46 46" fill="none" xmlns="http://www.w3.org/2000/svg">
<g clip-path="url(#clip0_27_6074)">
<path fill-rule="evenodd" clip-rule="evenodd" d="M30.7818 20.9683C31.3201 21.5074 31.6226 22.2381 31.6226 23C31.6226 23.7618 31.3201 24.4926 30.7818 25.0316L19.9411 35.8761C19.674 36.1431 19.357 36.3548 19.0081 36.4992C18.6593 36.6436 18.2854 36.7179 17.9078 36.7178C17.5302 36.7177 17.1563 36.6432 16.8075 36.4987C16.4587 36.3541 16.1418 36.1422 15.8749 35.8752C15.608 35.6081 15.3962 35.2911 15.2518 34.9422C15.1074 34.5933 15.0331 34.2194 15.0332 33.8419C15.0333 33.4643 15.1078 33.0904 15.2523 32.7416C15.3969 32.3928 15.6088 32.0759 15.8758 31.809L24.6829 23L15.8739 14.191C15.5992 13.9259 15.38 13.6087 15.2292 13.258C15.0784 12.9074 14.9989 12.5301 14.9954 12.1484C14.9919 11.7667 15.0644 11.3881 15.2088 11.0347C15.3532 10.6813 15.5666 10.3602 15.8364 10.0901C16.1062 9.82003 16.4271 9.6064 16.7803 9.46168C17.1336 9.31695 17.5121 9.24403 17.8939 9.24717C18.2756 9.2503 18.6529 9.32943 19.0037 9.47994C19.3546 9.63045 19.6719 9.84932 19.9373 10.1238L30.7818 20.9683Z" fill="white"/>
</g>
<defs>
<clipPath id="clip0_27_6074">
<rect width="46" height="46" fill="white" transform="translate(46) rotate(90)"/>
</clipPath>
</defs>
</svg>
